<svg xmlns="http://www.w3.org/2000/svg" viewBox="0 0 72 72"><defs><style>.cls-1{fill:none;}.cls-2{fill:#717171;}.cls-3{fill:#727373;}</style></defs><title>Aerospace_Products</title><g id="Layer_2" data-name="Layer 2"><g id="Layer_1-2" data-name="Layer 1"><rect class="cls-1" width="72" height="72"/><polygon class="cls-2" points="57.52 17.68 54.12 21.07 54.59 36.66 33.23 58.01 13.89 38.69 35.26 17.34 51.12 17.83 54.53 14.43 33.71 13.76 8.89 38.55 33.37 63 58.18 38.21 57.52 17.68"/><rect class="cls-3" x="16.2" y="33.94" width="11.66" height="3.62" transform="translate(-18.82 26.05) rotate(-45)"/><rect class="cls-3" x="20.9" y="38.63" width="11.66" height="3.62" transform="translate(-20.77 30.75) rotate(-45)"/><rect class="cls-3" x="25.59" y="43.33" width="11.66" height="3.62" transform="translate(-22.71 35.44) rotate(-45)"/><rect class="cls-3" x="30.29" y="48.02" width="11.66" height="3.62" transform="translate(-24.66 40.14) rotate(-45)"/><path class="cls-2" d="M63.11,10.52,61.7,9.11,50.4,20.41a4.09,4.09,0,0,0-6.24,3.5,4.12,4.12,0,1,0,7.64-2.08ZM50.76,23.91a2.49,2.49,0,1,1-2.49-2.49,2.41,2.41,0,0,1,.93.19l-1.11,1.11,1.41,1.41L50.59,23A2.38,2.38,0,0,1,50.76,23.91Z"/></g></g></svg>