<?xml version="1.0" encoding="UTF-8"?>
<svg id="Layer_1" data-name="Layer 1" xmlns="http://www.w3.org/2000/svg" viewBox="0 0 72 72">
  <defs>
    <style>
      .cls-1 {
        fill: #666;
        stroke-width: 0px;
      }
    </style>
  </defs>
  <path class="cls-1" d="M22.08,67.18c-.28.01-.56-.01-.84-.08-1.01-.24-1.84-.96-2.21-1.93l-2.64-6.96c-.07-.19-.22-.33-.41-.39l-7.89-2.5c-1.05-.33-1.83-1.17-2.09-2.24-.26-1.07.05-2.18.84-2.95.59-.58,1.37-.91,2.2-.91h8.26c.2,0,.38-.08.5-.24h0s7.87-9.82,7.87-9.82c.17-.21.15-.44.12-.55-.03-.11-.11-.32-.35-.44L7,29.53c-.92-.43-1.58-1.29-1.75-2.29-.17-1,.15-2.03.88-2.75l1.45-1.44c.77-.76,1.86-1.07,2.92-.82l24.36,5.76c.21.05.44-.01.6-.16l11.25-10.8.06-.05c.29-.21,2.87-2.05,5.33-1.56,1.54.31,2.54,1.17,2.81,2.42.43,2,.03,3.96-1.13,5.51l-.04.05-9.45,11.37c-.14.17-.18.39-.12.6l7.42,24.8c.29.97.09,2.02-.53,2.81l-1.1,1.41c-.64.83-1.65,1.27-2.7,1.2-1.04-.08-1.97-.67-2.49-1.58l-9.86-17.5c-.13-.23-.34-.3-.46-.32-.11-.02-.33-.02-.54.15l-9.79,8.71c-.16.14-.24.36-.21.57l1.12,7.99c.14,1.01-.22,2.02-.96,2.72l-.13.11c-.53.44-1.19.69-1.87.72ZM9,51.7c-.16,0-.31.07-.43.19-.23.23-.2.5-.17.61s.12.36.43.46l7.89,2.5c.92.29,1.64.97,1.98,1.87l2.64,6.96c.11.28.33.37.46.4s.37.05.59-.16h.01c.15-.15.22-.36.19-.56l-1.12-7.99c-.14-1.04.24-2.07,1.02-2.77l9.79-8.71c.71-.63,1.65-.9,2.59-.75.94.16,1.74.72,2.21,1.55l9.86,17.5c.15.26.39.32.51.33.13.01.37,0,.56-.25l1.1-1.41c.13-.16.17-.38.11-.58l-7.42-24.8c-.3-1-.08-2.09.59-2.89l9.43-11.34c.91-1.24.87-2.58.68-3.49-.07-.32-.64-.47-.88-.52-1.13-.23-2.74.68-3.31,1.08l-11.13,10.69c-.77.74-1.85,1.03-2.88.79l-24.36-5.76c-.22-.05-.44.01-.6.17l-1.45,1.44c-.21.21-.2.44-.18.57.02.12.1.35.36.47l18.43,8.65c.87.41,1.5,1.18,1.72,2.12s0,1.91-.6,2.66l-7.87,9.82c-.6.74-1.49,1.17-2.44,1.17h-8.26s-.02,0-.03,0Z"/>
  <path class="cls-1" d="M52.8,3.82v2.68c6.23-.01,11.3,5.05,11.31,11.27h2.68c-.01-7.71-6.29-13.97-14-13.96"/>
  <path class="cls-1" d="M52.81,10.85v2.69c2.35,0,4.26,1.9,4.27,4.25h2.69c0-3.83-3.13-6.94-6.95-6.93"/>
</svg>