<?xml version="1.0" encoding="UTF-8"?>
<svg id="Layer_1" data-name="Layer 1" xmlns="http://www.w3.org/2000/svg" viewBox="0 0 72 72">
  <defs>
    <style>
      .cls-1 {
        fill: #666;
        stroke-width: 0px;
      }
    </style>
  </defs>
  <path class="cls-1" d="M27.44,59.46l7.12-21.35h-10.19l6.31-18.94h15.97l-6.59,11.39h11.33l-23.95,28.9ZM28.19,35.35h10.19l-3.67,11.02,10.82-13.06h-10.25l6.59-11.39h-9.21l-4.48,13.43Z"/>
  <g>
    <path class="cls-1" d="M27.99,5.07C14.05,8.67,4.05,21.48,4.05,36h2c0-13.53,9.25-25.47,22.2-28.93l.45,3.54,7.3-5.56-8.46-3.54.45,3.56Z"/>
    <path class="cls-1" d="M5.07,44.01c3.6,13.94,16.41,23.94,30.93,23.94v-2c-13.53,0-25.47-9.25-28.93-22.2l3.54-.45-5.56-7.3-3.54,8.46,3.56-.45Z"/>
    <path class="cls-1" d="M65.43,36c0,12.94-8.83,24.4-21.18,27.84l-.46-3.51-7.28,5.59,8.48,3.51-.47-3.56c13.35-3.58,22.91-15.94,22.91-29.87h-2Z"/>
    <path class="cls-1" d="M66.93,27.99c-3.6-13.94-16.41-23.94-30.93-23.94v2c13.53,0,25.47,9.25,28.93,22.2l-3.54.45,5.56,7.3,3.54-8.46-3.56.45Z"/>
  </g>
</svg>