<?xml version="1.0" encoding="utf-8"?>
<!-- Generator: Adobe Illustrator 27.0.0, SVG Export Plug-In . SVG Version: 6.00 Build 0)  -->
<svg version="1.1" id="Layer_1" xmlns="http://www.w3.org/2000/svg" xmlns:xlink="http://www.w3.org/1999/xlink" x="0px" y="0px"
	 viewBox="0 0 236.8 265.9" style="enable-background:new 0 0 236.8 265.9;" xml:space="preserve">
<style type="text/css">
	.st0{fill:#6D6E71;}
</style>
<g>
	<path class="st0" d="M223.1,57.5L132,4.8c-8.4-4.8-18.7-4.8-27.1,0L13.7,57.5C5.4,62.2,0.3,71,0.3,80.6v105.5
		c0,9.5,5.1,18.3,13.3,23.1l91.1,52.6c8.4,4.8,18.7,4.8,27.1,0l91.1-52.6c8.2-4.8,13.3-13.6,13.3-23.1V80.6
		C236.4,71,231.3,62.2,223.1,57.5z M222.6,186.1c0,4.6-2.4,8.8-6.4,11.1L125,249.8c-4.1,2.4-9.2,2.4-13.3,0l-91.1-52.6
		c-4-2.3-6.4-6.5-6.4-11.1V80.6c0-4.6,2.4-8.8,6.4-11.1l91.1-52.6c4.1-2.4,9.2-2.4,13.3,0l91.1,52.6c4,2.3,6.4,6.5,6.4,11.1
		L222.6,186.1z"/>
	<path class="st0" d="M196.8,112.9l-76.9-44.4c-0.4-0.3-0.9-0.4-1.5-0.4c-0.5,0-1,0.1-1.4,0.4L39.8,113c-0.6,0.3-0.7,1-0.4,1.6
		c0.1,0.2,0.2,0.3,0.4,0.4l20.6,11.6c0.3,0.1,0.6,0.2,0.9,0.2c0.3,0,0.6-0.1,0.9-0.2l10.9-6.3c0.6-0.4,0.8-0.8,0.7-1.1
		c0-0.3-0.2-0.6-0.8-0.9l-6.8-3.7c-0.3-0.2-0.5-0.6-0.3-1c0.1-0.1,0.2-0.2,0.3-0.3l50-28.7c0.5-0.4,1.2-0.6,1.9-0.7
		c0.7,0.1,1.3,0.3,1.9,0.7l49.3,28.6c0.3,0.2,0.4,0.6,0.3,1c-0.1,0.1-0.1,0.2-0.3,0.3L119.4,144c-0.3,0.2-0.6,0.3-1,0.3
		c-0.4-0.1-0.8-0.2-1.2-0.4l-6.8-4.1c-0.3-0.1-0.6-0.2-0.9-0.2c-0.4,0-0.7,0.1-1,0.3l-10.6,6.4c-0.4,0.2-0.6,0.5-0.7,0.9
		c0,0.4,0.3,0.8,0.7,1l19,11.4c0.4,0.2,0.8,0.4,1.2,0.3c0.5,0,0.9-0.1,1.3-0.3c3.1-1.8,76.9-44.3,77.4-44.6c0.3-0.2,0.6-0.6,0.6-1
		C197.3,113.5,197.1,113.1,196.8,112.9z"/>
	<path class="st0" d="M196.7,151.6L176.1,140c-0.3-0.1-0.6-0.2-0.9-0.2c-0.3,0-0.6,0.1-0.9,0.2l-10.9,6.3c-0.6,0.4-0.8,0.8-0.7,1.1
		c0,0.3,0.2,0.6,0.8,0.9l6.8,3.7c0.3,0.2,0.5,0.6,0.3,1c-0.1,0.1-0.2,0.2-0.3,0.3l-49.6,28.4l-0.4,0.2c-0.5,0.4-1.2,0.6-1.9,0.7
		c-0.7-0.1-1.3-0.3-1.9-0.7l-0.1-0.1l-49.2-28.5c-0.3-0.2-0.4-0.6-0.3-1c0.1-0.1,0.1-0.2,0.2-0.3l50.1-29.5c0.3-0.2,0.6-0.3,1-0.3
		c0.4,0,0.8,0.2,1.2,0.4l6.8,4.1c0.3,0.1,0.6,0.2,0.9,0.2c0.4,0,0.7-0.1,1-0.3l10.6-6.4c0.4-0.2,0.6-0.5,0.7-0.9
		c0-0.4-0.3-0.8-0.7-1l-19-11.4c-0.4-0.2-0.8-0.4-1.3-0.3c-0.4,0-0.8,0.1-1.2,0.4c-0.8,0.4-76.9,44.3-77.4,44.6
		c-0.3,0.2-0.6,0.6-0.6,1c0,0.4,0.2,0.8,0.6,1l76.9,44.4c0.4,0.3,0.9,0.4,1.4,0.4c0.5,0,1-0.1,1.4-0.4l77.1-44.5
		c0.6-0.3,0.7-1,0.4-1.6C197,151.9,196.9,151.7,196.7,151.6L196.7,151.6z"/>
</g>
</svg>
