<?xml version="1.0" encoding="utf-8"?>
<!-- Generator: Adobe Illustrator 28.1.0, SVG Export Plug-In . SVG Version: 6.00 Build 0)  -->
<svg version="1.1" id="Layer_1" xmlns="http://www.w3.org/2000/svg" xmlns:xlink="http://www.w3.org/1999/xlink" x="0px" y="0px"
	 viewBox="0 0 100 100" style="enable-background:new 0 0 100 100;" xml:space="preserve">
<style type="text/css">
	.st0{fill:none;}
	.st1{fill:#717272;}
</style>
<g>
	<path class="st0" d="M34.3,62.3c0,2.4,2,4.4,4.3,4.4h23.2c2.4,0,4.3-2,4.3-4.4V45c0-2.4-2-4.3-4.3-4.3H38.7c-2.4,0-4.3,2-4.3,4.3
		v17.3H34.3z M50.3,49.2c1.8,0,3.4,1.1,4.1,2.9c0.4,1.1,0.4,2.3,0,3.4c-0.5,1.1-1.4,1.9-2.4,2.3L51.7,58v2.9c0,0.9-0.7,1.6-1.7,1.6
		s-1.7-0.7-1.7-1.6v-3.1L48,57.7c-1.5-0.8-2.3-2.3-2.3-3.9C45.8,51.2,47.8,49.2,50.3,49.2z"/>
	<path class="st0" d="M50.3,22.8c-5.3,0-9.7,4.5-9.7,10v4.7h19.3v-4.7C59.9,27.3,55.6,22.8,50.3,22.8z"/>
	<path class="st0" d="M15,19.5v23.3c0,20.5,13.5,40.1,35.3,51c21.8-10.9,35.3-30.5,35.3-51V19.5L50.4,7.3L15,19.5z M63.3,32.8v4.7
		l0.3,0.1c3.4,0.7,5.9,3.7,6.1,7.3v17.2c0,1.9-0.8,3.8-2.3,5.3c-1.4,1.4-3.3,2.2-5.4,2.2H38.8c-4.2,0-7.6-3.3-7.6-7.5V44.9
		c0-3.5,2.4-6.5,5.9-7.3l0.3-0.1v-4.7c0-7.3,5.8-13.2,13-13.2C57.5,19.5,63.3,25.5,63.3,32.8z"/>
	<path class="st0" d="M49.9,54.8h0.2h0.3h0.1h0.1h0.1l0.1-0.1c0.4-0.2,0.8-0.7,0.8-1.2c0-0.7-0.5-1.1-1.2-1.1c-0.4,0-0.7,0.2-1,0.6
		c-0.2,0.4-0.3,0.6-0.2,0.9c0.1,0.3,0.2,0.6,0.5,0.7L49.9,54.8z"/>
	<path class="st1" d="M87.9,16.8L50.9,4c-0.2-0.1-0.4-0.1-0.5-0.1S50,3.9,49.8,4l-37,12.8c-0.6,0.3-1.1,0.9-1.1,1.5v24.5
		c0,22.1,14.5,43,37.9,54.4c0.3,0.1,0.5,0.1,0.7,0.1s0.5,0,0.7-0.3c23.4-11.5,37.9-32.3,37.9-54.3V18.3C88.9,17.6,88.5,17,87.9,16.8
		z M85.7,19.5v23.3c0,20.5-13.5,40.1-35.3,51C28.6,82.9,15,63.3,15,42.8V19.5L50.4,7.3L85.7,19.5z"/>
	<path class="st1" d="M37.4,32.8v4.7l-0.3,0.1c-3.5,0.8-5.9,3.9-5.9,7.3v17.2c0,4.1,3.4,7.5,7.6,7.5h23.3c2,0,4-0.8,5.4-2.2
		c1.5-1.5,2.3-3.3,2.3-5.3V44.9c-0.2-3.6-2.7-6.6-6.1-7.3l-0.3-0.1v-4.7c0-7.3-5.8-13.2-13-13.2C43.2,19.5,37.4,25.5,37.4,32.8z
		 M38.7,40.7h23.2c2.4,0,4.3,2,4.3,4.3v17.3c0,2.4-2,4.4-4.3,4.4H38.7c-2.4,0-4.3-2-4.3-4.4V45C34.3,42.6,36.3,40.7,38.7,40.7z
		 M59.9,37.5H40.6v-4.7c0-5.5,4.3-10,9.7-10c5.3,0,9.6,4.5,9.6,10V37.5z"/>
	<path class="st1" d="M48.1,57.6l0.3,0.1v3.1c0,0.9,0.7,1.6,1.7,1.6s1.7-0.7,1.7-1.6V58l0.3-0.1c1-0.4,1.9-1.2,2.4-2.3
		c0.4-1.1,0.4-2.3,0-3.4c-0.7-1.8-2.3-2.9-4.1-2.9c-2.5,0-4.5,2-4.5,4.5C45.8,55.3,46.7,56.8,48.1,57.6z M49.4,53
		c0.3-0.4,0.6-0.6,1-0.6c0.7,0,1.2,0.5,1.2,1.1c-0.1,0.5-0.4,1-0.8,1.2l-0.1,0.1h-0.1h-0.1h-0.1h-0.3h-0.2l-0.2-0.1
		c-0.2-0.2-0.4-0.4-0.5-0.7C49.1,53.6,49.2,53.4,49.4,53z"/>
</g>
</svg>
